<svg width="24" height="25" viewBox="0 0 24 25" fill="none" xmlns="http://www.w3.org/2000/svg">
<path fill-rule="evenodd" clip-rule="evenodd" d="M13.2556 3.1928C12.8866 1.94022 11.1134 1.94022 10.7444 3.1928L10.6034 3.67133C10.4848 4.07327 10.2778 4.4436 9.99757 4.75518C9.71732 5.06676 9.37092 5.3117 8.98375 5.47206C8.59657 5.63243 8.17842 5.70415 7.75994 5.68198C7.34145 5.65981 6.93322 5.54431 6.56516 5.34393L6.12713 5.10392C4.98106 4.48138 3.72698 5.73396 4.35102 6.88153L4.58954 7.31955C4.78991 7.68762 4.90542 8.09585 4.92759 8.51433C4.94976 8.93282 4.87803 9.35096 4.71767 9.73814C4.55731 10.1253 4.31236 10.4717 4.00078 10.752C3.6892 11.0322 3.31888 11.2392 2.91693 11.3578L2.4384 11.4988C1.18582 11.8678 1.18582 13.641 2.4384 14.01L2.91693 14.151C3.31909 14.2695 3.68961 14.4766 4.00135 14.7569C4.31309 15.0373 4.55813 15.3838 4.71851 15.7712C4.8789 16.1586 4.95056 16.5769 4.92824 16.9956C4.90593 17.4142 4.79019 17.8226 4.58954 18.1907L4.34952 18.6273C3.72698 19.7733 4.97956 21.0274 6.12713 20.4034L6.56516 20.1649C6.93332 19.9645 7.34165 19.8491 7.76022 19.827C8.17879 19.8049 8.59699 19.8768 8.98419 20.0373C9.37138 20.1978 9.71776 20.4429 9.99794 20.7547C10.2781 21.0664 10.485 21.4369 10.6034 21.839L10.7444 22.316C11.1134 23.5686 12.8866 23.5686 13.2556 22.316L13.3966 21.8375C13.5151 21.4353 13.7222 21.0648 14.0025 20.753C14.2829 20.4413 14.6294 20.1963 15.0168 20.0359C15.4042 19.8755 15.8225 19.8038 16.2412 19.8262C16.6599 19.8485 17.0682 19.9642 17.4363 20.1649L17.8729 20.4049C19.0189 21.0274 20.273 19.7748 19.649 18.6273L19.4105 18.1907C19.2098 17.8225 19.0942 17.4141 19.0719 16.9953C19.0497 16.5766 19.1215 16.1581 19.282 15.7708C19.4426 15.3834 19.6878 15.0368 19.9997 14.7565C20.3116 14.4763 20.6823 14.2693 21.0846 14.151L21.5616 14.01C22.8142 13.641 22.8142 11.8678 21.5616 11.4988L21.0831 11.3578C20.6811 11.2392 20.3108 11.0322 19.9992 10.752C19.6876 10.4717 19.4427 10.1253 19.2823 9.73814C19.122 9.35096 19.0502 8.93282 19.0724 8.51433C19.0946 8.09585 19.2101 7.68762 19.4105 7.31955L19.6505 6.88153C20.273 5.73546 19.0204 4.48138 17.8729 5.10542L17.4363 5.34393C17.0682 5.54487 16.6597 5.66083 16.2408 5.68329C15.822 5.70576 15.4034 5.63416 15.0159 5.47376C14.6283 5.31335 14.2816 5.06821 14.0011 4.75631C13.7206 4.44442 13.5136 4.07369 13.3951 3.67133L13.2541 3.1928H13.2556ZM9.30583 2.76827C10.0964 0.0831026 13.9036 0.0831026 14.6942 2.76827L14.8352 3.2468C14.8904 3.43424 14.9868 3.60695 15.1175 3.75227C15.2481 3.89759 15.4096 4.01183 15.5901 4.08663C15.7706 4.16143 15.9656 4.19488 16.1607 4.18454C16.3559 4.17419 16.5462 4.12031 16.7178 4.02685L17.1558 3.78683C19.616 2.44875 22.3071 5.13842 20.9661 7.59857L20.7275 8.0366C20.6341 8.2082 20.5802 8.39854 20.5699 8.59367C20.5595 8.78879 20.593 8.98376 20.6678 9.16428C20.7426 9.3448 20.8568 9.5063 21.0021 9.63692C21.1474 9.76755 21.3202 9.86401 21.5076 9.91922L21.9861 10.0602C24.6713 10.8508 24.6713 14.658 21.9861 15.4486L21.5076 15.5896C21.3202 15.6448 21.1474 15.7412 21.0021 15.8719C20.8568 16.0025 20.7426 16.164 20.6678 16.3445C20.593 16.525 20.5595 16.72 20.5699 16.9151C20.5802 17.1103 20.6341 17.3006 20.7275 17.4722L20.9676 17.9102C22.3071 20.3704 19.6145 23.0615 17.1558 21.7205L16.7178 21.4819C16.5462 21.3885 16.3559 21.3346 16.1607 21.3243C15.9656 21.3139 15.7706 21.3474 15.5901 21.4222C15.4096 21.497 15.2481 21.6112 15.1175 21.7565C14.9868 21.9018 14.8904 22.0746 14.8352 22.262L14.6942 22.7405C13.9036 25.4257 10.0964 25.4257 9.30583 22.7405L9.16482 22.262C9.10961 22.0746 9.01316 21.9018 8.88253 21.7565C8.7519 21.6112 8.59041 21.497 8.40989 21.4222C8.22937 21.3474 8.0344 21.3139 7.83927 21.3243C7.64414 21.3346 7.4538 21.3885 7.28221 21.4819L6.84418 21.722C4.38402 23.0615 1.69436 20.3689 3.03394 17.9102L3.27245 17.4722C3.36592 17.3006 3.4198 17.1103 3.43014 16.9151C3.44049 16.72 3.40703 16.525 3.33224 16.3445C3.25744 16.164 3.14319 16.0025 2.99787 15.8719C2.85256 15.7412 2.67985 15.6448 2.49241 15.5896L2.01388 15.4486C-0.671292 14.658 -0.671292 10.8508 2.01388 10.0602L2.49241 9.91922C2.67985 9.86401 2.85256 9.76755 2.99787 9.63692C3.14319 9.5063 3.25744 9.3448 3.33224 9.16428C3.40703 8.98376 3.44049 8.78879 3.43014 8.59367C3.4198 8.39854 3.36592 8.2082 3.27245 8.0366L3.03244 7.59857C1.69436 5.13842 4.38552 2.44875 6.84418 3.78833L7.28221 4.02685C7.4538 4.12031 7.64414 4.17419 7.83927 4.18454C8.0344 4.19488 8.22937 4.16143 8.40989 4.08663C8.59041 4.01183 8.7519 3.89759 8.88253 3.75227C9.01316 3.60695 9.10961 3.43424 9.16482 3.2468L9.30583 2.76827V2.76827Z" fill="#333333"/>
<path fill-rule="evenodd" clip-rule="evenodd" d="M12 9.38535C11.1065 9.38535 10.2495 9.74032 9.61765 10.3722C8.9858 11.004 8.63083 11.861 8.63083 12.7546C8.63083 13.6481 8.9858 14.5051 9.61765 15.1369C10.2495 15.7688 11.1065 16.1238 12 16.1238C12.8936 16.1238 13.7506 15.7688 14.3824 15.1369C15.0143 14.5051 15.3693 13.6481 15.3693 12.7546C15.3693 11.861 15.0143 11.004 14.3824 10.3722C13.7506 9.74032 12.8936 9.38535 12 9.38535V9.38535ZM7.13074 12.7546C7.13074 12.1151 7.25669 11.4819 7.50139 10.8912C7.7461 10.3004 8.10477 9.7636 8.55692 9.31144C9.00908 8.85928 9.54587 8.50061 10.1366 8.25591C10.7274 8.0112 11.3606 7.88525 12 7.88525C12.6395 7.88525 13.2727 8.0112 13.8634 8.25591C14.4542 8.50061 14.991 8.85928 15.4432 9.31144C15.8953 9.7636 16.254 10.3004 16.4987 10.8912C16.7434 11.4819 16.8693 12.1151 16.8693 12.7546C16.8693 14.046 16.3563 15.2845 15.4432 16.1977C14.53 17.1108 13.2915 17.6239 12 17.6239C10.7086 17.6239 9.4701 17.1108 8.55692 16.1977C7.64375 15.2845 7.13074 14.046 7.13074 12.7546V12.7546Z" fill="#333333"/>
</svg>
